<svg width="95" height="36" viewBox="0 0 95 36" fill="none" xmlns="http://www.w3.org/2000/svg">
<path d="M18.233 4.84992C18.3055 5.07252 18.3406 5.22758 18.4056 5.37014C20.694 10.2897 19.0659 15.5394 14.4089 18.2555C8.33639 21.797 0.223012 17.3051 0.00542179 10.2797C-0.14214 5.5202 2.73406 1.50853 7.20342 0.345546C9.95457 -0.372253 12.5757 0.0229112 14.9767 1.58106C15.4469 1.88619 15.717 1.89869 16.1121 1.45851C16.8599 0.625662 17.8354 0.177976 18.9533 0.0429196C19.296 0.000401843 19.456 0.0879383 19.4535 0.460594C19.4435 1.74863 19.441 3.03917 19.4535 4.32721C19.456 4.67735 19.3185 4.81991 18.9758 4.80991C18.7532 4.8049 18.5306 4.83242 18.233 4.84992ZM9.71697 4.69236C6.93081 4.68235 4.66737 6.90578 4.63735 9.68444C4.60734 12.4631 6.9008 14.8041 9.66695 14.8166C12.4581 14.8266 14.7666 12.5481 14.7791 9.76697C14.7916 6.9583 12.5431 4.70236 9.71947 4.69236H9.71697Z" fill="#FBE3C1"/>
<path d="M2.35943 26.5783C2.87964 26.5783 3.40236 26.5633 3.91758 26.5232C4.42779 26.4832 4.63788 26.6558 4.74542 27.176C5.1681 29.2319 6.40862 30.6024 8.43446 31.1527C11.2556 31.9205 14.0593 30.1372 14.6596 27.2636C14.7896 26.6383 15.1839 26.3223 15.8425 26.3157C16.8205 26.3032 17.7984 26.3082 18.7738 26.2631C19.2965 26.2381 19.4866 26.4057 19.434 26.9359C19.0614 30.6149 17.2932 33.4036 13.9518 34.9993C7.94425 37.8655 1.21895 34.304 0.0784768 27.7488C0.0559674 27.6262 0.0559674 27.5011 0.030957 27.3786C-0.0815899 26.8009 0.103487 26.5232 0.738752 26.5708C1.27648 26.6108 1.8192 26.5783 2.35943 26.5783C2.35943 26.5633 2.35943 26.5933 2.35943 26.5783Z" fill="#F1D3CB"/>
<path d="M27.8702 26.5633C28.3904 26.5633 28.9131 26.5633 29.4283 26.5232C29.9385 26.4832 30.1486 26.6558 30.2562 27.176C30.6788 29.2319 31.9194 30.6024 33.9452 31.1527C36.7664 31.9205 39.57 30.1372 40.1703 27.2636C40.3004 26.6383 40.6947 26.3223 41.3533 26.3157C42.3312 26.3032 43.3091 26.3082 44.2845 26.2631C44.8072 26.2381 44.9973 26.4057 44.9448 26.9359C44.5721 30.6149 42.8039 33.4036 39.4625 34.9993C33.455 37.8655 26.7297 34.304 25.5892 27.7488C25.5667 27.6262 25.5667 27.5011 25.5417 27.3786C25.4292 26.8009 25.6142 26.5232 26.2495 26.5708C26.7872 26.6108 27.3299 26.5783 27.8702 26.5783C27.8702 26.5633 27.8702 26.5783 27.8702 26.5633Z" fill="#F1D3CB"/>
<path d="M53.3809 26.5633C53.9011 26.5633 54.4238 26.5633 54.9391 26.5232C55.4493 26.4832 55.6594 26.6558 55.7669 27.176C56.1896 29.2319 57.4301 30.6024 59.4559 31.1527C62.2771 31.9205 65.0808 30.1372 65.681 27.2636C65.8111 26.6383 66.2054 26.3223 66.864 26.3157C67.8419 26.3032 68.8198 26.3082 69.7953 26.2631C70.318 26.2381 70.5081 26.4057 70.4555 26.9359C70.0829 30.6149 68.3146 33.4036 64.9732 34.9993C58.9657 37.8655 52.2404 34.304 51.1 27.7488C51.0775 27.6262 51.0775 27.5011 51.0524 27.3786C50.9399 26.8009 51.125 26.5232 51.7602 26.5708C52.298 26.6108 52.8407 26.5783 53.3809 26.5783C53.3809 26.5633 53.3809 26.5783 53.3809 26.5633Z" fill="#F1D3CB"/>
<path d="M77.8912 26.5783C78.4114 26.5783 78.9341 26.5633 79.4493 26.5232C79.9595 26.4832 80.1696 26.6558 80.2772 27.176C80.6998 29.2319 81.9404 30.6024 83.9662 31.1527C86.7874 31.9205 89.591 30.1372 90.1913 27.2636C90.3213 26.6383 90.7157 26.3223 91.3743 26.3157C92.3522 26.3032 93.3301 26.3082 94.3055 26.2631C94.8282 26.2381 95.0183 26.4057 94.9658 26.9359C94.5931 30.6149 92.8249 33.4036 89.4835 34.9993C83.476 37.8655 76.7507 34.304 75.6102 27.7488C75.5877 27.6262 75.5877 27.5011 75.5627 27.3786C75.4501 26.8009 75.6352 26.5232 76.2705 26.5708C76.8082 26.6108 77.3509 26.5783 77.8912 26.5783C77.8912 26.5633 77.8912 26.5933 77.8912 26.5783Z" fill="#F1D3CB"/>
<path d="M68.1044 18.1747C67.5842 18.1747 67.0615 18.1897 66.5463 18.2297C66.0361 18.2697 65.826 18.0971 65.7184 17.5769C65.2958 15.5211 64.0553 14.1505 62.0294 13.6003C59.2082 12.8324 56.4046 14.6157 55.8043 17.4894C55.6743 18.1146 55.2799 18.4306 54.6213 18.4373C53.6434 18.4498 52.6655 18.4448 51.6901 18.4898C51.1674 18.5148 50.9773 18.3472 51.0298 17.817C51.4025 14.138 53.1707 11.3493 56.5121 9.75365C62.5196 6.88746 69.2449 10.4489 70.3854 17.0042C70.4079 17.1267 70.4079 17.2518 70.4329 17.3743C70.5455 17.9521 70.3604 18.2297 69.7251 18.1822C69.1874 18.1422 68.6447 18.1747 68.1044 18.1747C68.1044 18.1897 68.1044 18.1597 68.1044 18.1747Z" fill="#F1D3CB"/>
<path fill-rule="evenodd" clip-rule="evenodd" d="M44.0185 1H26.5112V18.5073H44.0185V1ZM39.0165 6.00221H31.5133V13.5053H39.0165V6.00221Z" fill="#D0DFDD"/>
<path fill-rule="evenodd" clip-rule="evenodd" d="M94.0395 1H76.5322V18.5073H94.0395V1ZM89.0374 6.00221H81.5343V13.5053H89.0374V6.00221Z" fill="#D0D5EC"/>
<rect x="51" y="1" width="19" height="5" fill="#F1D3CB"/>
</svg>
